#!OML:ASF F:\VICON\USERDATA\INSTALL\SteveWalk\SteveWalk.ASF
:FULLY-SPECIFIED
:DEGREES
46
root -0.927616 16.2233 -34.9795 16.0966 -1.87676 3.89053
lowerback -15.365 0.0613144 -7.20547
upperback -4.55448 1.28523 -2.33495
thorax 3.65361 0.621762 1.83814
lowerneck -4.44728 -1.20051 0.958483
upperneck 7.32066 -1.79377 1.44878
head 3.12562 -0.809767 0.229641
rclavicle -8.31324e-015 3.49861e-014
rhumerus -37.471 -3.11166 -88.851
rradius 42.9352
rwrist -15.9865
rhand -15.3182 -33.8312
rfingers 7.12502
rthumb 10.8579 -63.5305
lclavicle -8.31324e-015 3.49861e-014
lhumerus -63.8371 40.9303 37.3124
lradius 11.7203
lwrist -45.093
lhand -10.7577 -14.7564
lfingers 7.12502
lthumb 15.2539 14.6612
rfemur -26.9807 -3.81676 14.712
rtibia 74.1753
rfoot 0.754435 3.1222
rtoes -16.1818
lfemur -39.4126 1.71279 -28.1294
ltibia 37.9186
lfoot -15.1574 -3.20017
ltoes -7.5429
47
root -0.911132 16.2523 -34.7963 16.2969 -2.21356 3.41521
lowerback -15.8609 0.137251 -6.78112
upperback -4.40165 1.36389 -2.13365
thorax 4.08377 0.644903 1.83612
lowerneck -4.52357 -1.19395 0.959504
upperneck 7.3892 -1.77674 1.31216
head 3.162 -0.805408 0.18524
rclavicle 4.43849e-015 -1.90833e-014
rhumerus -37.6425 -3.50773 -88.7129
rradius 41.1689
rwrist -16.1841
rhand -15.5774 -34.5913
rfingers 7.12502
rthumb 10.6079 -64.3036
lclavicle 4.43849e-015 -1.90833e-014
lhumerus -60.9333 40.9732 40.6025
lradius 12.0352
lwrist -43.1628
lhand -11.5313 -14.4392
lfingers 7.12502
lthumb 14.5086 15.0335
rfemur -28.9571 -3.28815 15.3301
rtibia 74.517
rfoot -1.02608 3.07426
rtoes -14.1185
lfemur -38.7999 2.11338 -27.7743
ltibia 37.8209
lfoot -15.9181 -2.60661
ltoes -8.4198
48
root -0.89475 16.2738 -34.6126 16.4551 -2.31619 3.12812
lowerback -15.9228 0.114272 -6.44023
upperback -4.49484 1.27237 -1.99965
thorax 4.03113 0.60444 1.76964
lowerneck -4.30684 -1.24001 0.963556
upperneck 7.49509 -1.82304 1.13289
head 3.15487 -0.835021 0.125779
rclavicle -5.55044e-015 5.96354e-015
rhumerus -38.1422 -4.04763 -88.5739
rradius 39.1873
rwrist -15.9477
rhand -15.8117 -34.974
rfingers 7.12502
rthumb 10.3818 -64.6977
lclavicle -5.55044e-015 5.96354e-015
lhumerus -58.276 40.4874 43.789
lradius 12.3932
lwrist -41.0503
lhand -12.5851 -14.1779
lfingers 7.12502
lthumb 13.4931 15.3649
rfemur -30.823 -2.95478 15.822
rtibia 74.6675
rfoot -2.76926 3.00106
rtoes -12.0765
lfemur -38.1374 2.31186 -27.5591
ltibia 37.7135
lfoot -16.6508 -2.06592
ltoes -9.54689
49
root -0.880116 16.2896 -34.4235 16.5713 -2.25563 2.94415
lowerback -16.0447 0.0491475 -6.10659
upperback -4.53557 1.13985 -1.97102
thorax 4.07106 0.539724 1.58903
lowerneck -4.1703 -1.18316 0.932623
upperneck 7.66617 -1.74885 1.17852
head 3.18831 -0.796496 0.149412
rclavicle -1.78285e-015 -1.59028e-015
rhumerus -38.7037 -4.84839 -88.3907
rradius 37.3033
rwrist -15.3864
rhand -15.7268 -34.6622
rfingers 7.12502
rthumb 10.4637 -64.3818
lclavicle -1.78285e-015 -1.59028e-015
lhumerus -55.8218 40.3067 46.197
lradius 12.5683
lwrist -39.7629
lhand -13.5933 -14.6452
lfingers 7.12502
lthumb 12.5212 14.9596
rfemur -32.4887 -2.70258 16.2623
rtibia 74.6036
rfoot -4.60086 2.86034
rtoes -10.606
lfemur -37.3865 2.36901 -27.4039
ltibia 37.5362
lfoot -17.2448 -1.9735
ltoes -9.16057
50
root -0.867322 16.305 -34.2373 16.6344 -2.33636 2.66984
lowerback -15.6837 0.11298 -5.90627
upperback -4.86215 1.14079 -1.85516
thorax 3.53295 0.561248 1.59194
lowerneck -3.95576 -1.16702 0.873424
upperneck 8.12509 -1.73304 1.25132
head 3.30681 -0.78459 0.184312
rclavicle -1.19248e-014 1.07344e-014
rhumerus -39.8479 -5.77723 -87.8685
rradius 35.6257
rwrist -14.7216
rhand -15.7232 -35.1766
rfingers 7.12502
rthumb 10.4671 -64.896
lclavicle -1.19248e-014 1.07344e-014
lhumerus -53.4411 39.293 48.9187
lradius 12.8032
lwrist -38.1777
lhand -14.5386 -15.5288
lfingers 7.12502
lthumb 11.6097 14.1296
rfemur -34.0862 -2.33733 16.7675
rtibia 74.3044
rfoot -6.3609 2.89298
rtoes -10.1107
lfemur -36.5694 2.6696 -27.2058
ltibia 37.2656
lfoot -17.8129 -2.04486
ltoes -8.44294
51
root -0.856016 16.3305 -34.0413 16.3595 -1.53621 2.78868
lowerback -15.1805 -0.134492 -5.95933
upperback -4.97412 0.778209 -1.83446
thorax 3.16804 0.394359 1.57309
lowerneck -3.6293 -1.21006 0.941938
upperneck 8.33189 -1.79781 1.29563
head 3.31565 -0.812494 0.18591
rclavicle -1.36851e-014 1.27222e-014
rhumerus -40.8646 -7.05125 -87.202
rradius 33.8156
rwrist -13.7093
rhand -15.7001 -34.9733
rfingers 7.12502
rthumb 10.4895 -64.6916
lclavicle -1.36851e-014 1.27222e-014
lhumerus -50.3865 37.0951 52.847
lradius 13.3391
lwrist -35.2006
lhand -15.4534 -15.3305
lfingers 7.12502
lthumb 10.7274 14.3756
rfemur -35.0852 -2.89107 17.1218
rtibia 73.7721
rfoot -8.31183 2.828
rtoes -11.0254
lfemur -35.2543 2.42391 -27.215
ltibia 36.9395
lfoot -18.4816 -2.45609
ltoes -8.21449
52
root -0.847906 16.3542 -33.8488 16.1075 -1.24762 2.74731
lowerback -14.977 -0.247932 -5.98678
upperback -4.84342 0.619462 -1.7353
thorax 3.20652 0.313165 1.66439
lowerneck -3.68429 -1.1525 0.863945
upperneck 8.41017 -1.7295 1.43812
head 3.35561 -0.774598 0.248106
rclavicle -1.53126e-015 -2.78299e-015
rhumerus -41.4061 -8.26147 -86.456
rradius 31.9829
rwrist -12.7556
rhand -15.606 -34.096
rfingers 7.12502
rthumb 10.5802 -63.8096
lclavicle -1.53126e-015 -2.78299e-015
lhumerus -47.0622 34.9603 56.9721
lradius 14.0068
lwrist -31.9337
lhand -15.9413 -14.8133
lfingers 7.12502
lthumb 10.2568 14.9166
rfemur -36.2887 -2.91673 17.5041
rtibia 73.1139
rfoot -9.10069 2.61316
rtoes -11.7391
lfemur -33.9967 2.42296 -27.1015
ltibia 36.6922
lfoot -19.1604 -2.49408
ltoes -8.14479
53
root -0.835922 16.3642 -33.6626 16.0308 -1.22401 2.50369
lowerback -14.9195 -0.26709 -5.77205
upperback -4.76714 0.556113 -1.59717
thorax 3.26272 0.279145 1.67802
lowerneck -3.57683 -1.10486 0.72124
upperneck 8.33282 -1.66495 1.5808
head 3.31105 -0.742846 0.322701
rclavicle 7.77745e-015 1.55052e-014
rhumerus -41.8743 -9.53033 -85.5733
rradius 30.1194
rwrist -11.7041
rhand -15.3654 -34.1086
rfingers 7.12502
rthumb 10.8123 -63.8103
lclavicle 7.77745e-015 1.55052e-014
lhumerus -44.009 32.464 60.9271
lradius 15.0016
lwrist -28.3325
lhand -16.353 -14.8027
lfingers 7.12502
lthumb 9.85956 14.9465
rfemur -37.6473 -2.70887 18.0298
rtibia 72.3183
rfoot -10.1621 2.21354
rtoes -10.9895
lfemur -33.0485 2.56604 -26.8427
ltibia 36.5507
lfoot -19.7195 -2.52729
ltoes -7.30119
54
root -0.819036 16.36 -33.4773 16.1061 -1.17553 2.2623
lowerback -14.7067 -0.280334 -5.38243
upperback -4.97389 0.454291 -1.52203
thorax 2.94182 0.23928 1.51885
lowerneck -3.28187 -1.20008 0.708414
upperneck 8.57217 -1.78575 1.50244
head 3.33705 -0.805574 0.296099
rclavicle -2.30466e-015 3.97569e-015
rhumerus -42.7378 -11.1732 -84.3825
rradius 28.239
rwrist -10.2116
rhand -14.9643 -35.0296
rfingers 7.12502
rthumb 11.1992 -64.7107
lclavicle -2.30466e-015 3.97569e-015
lhumerus -41.833 29.2907 64.3129
lradius 16.2899
lwrist -24.5832
lhand -17.0778 -14.8872
lfingers 7.12502
lthumb 9.16027 14.8938
rfemur -39.0686 -2.58822 18.553
rtibia 71.388
rfoot -11.5471 1.80328
rtoes -8.78059
lfemur -32.4094 2.83807 -26.6696
ltibia 36.6055
lfoot -20.294 -2.81362
ltoes -6.26491
55
root -0.815099 16.3529 -33.2961 16.0665 -0.632753 2.11492
lowerback -14.4405 -0.47964 -5.21204
upperback -5.00063 0.144247 -1.41119
thorax 2.7917 0.0895459 1.48695
lowerneck -3.34862 -1.26468 0.759929
upperneck 8.93699 -1.87581 1.41464
head 3.47529 -0.84845 0.253903
rclavicle -1.11195e-015 -1.66979e-014
rhumerus -43.4825 -12.9885 -82.979
rradius 26.4064
rwrist -8.51464
rhand -14.4246 -34.9484
rfingers 7.12502
rthumb 11.7197 -64.6005
lclavicle -1.11195e-015 -1.66979e-014
lhumerus -39.7162 26.4943 67.1516
lradius 17.3092
lwrist -21.3632
lhand -18.1825 -16.191
lfingers 7.12502
lthumb 8.0942 13.634
rfemur -40.2193 -2.76694 19.1719
rtibia 70.245
rfoot -12.4547 1.12367
rtoes -8.46634
lfemur -31.7116 2.88865 -26.4417
ltibia 36.7382
lfoot -20.9579 -3.21542
ltoes -5.79801
56
root -0.825131 16.3463 -33.1186 15.9957 0.153767 1.93321
lowerback -14.2541 -0.739848 -5.23067
upperback -4.90611 -0.210254 -1.249
thorax 2.81371 -0.0868354 1.60927
lowerneck -3.28701 -1.25737 0.879714
upperneck 8.92837 -1.87246 1.40998
head 3.45904 -0.843311 0.232087
rclavicle -2.69912e-015 -2.78299e-014
rhumerus -44.202 -14.9028 -81.4132
rradius 24.6767
rwrist -6.66467
rhand -13.9731 -34.2251
rfingers 7.12502
rthumb 12.155 -63.852
lclavicle -2.69912e-015 -2.78299e-014
lhumerus -37.3142 22.7787 70.4692
lradius 18.9
lwrist -16.6574
lhand -18.5547 -16.8736
lfingers 7.12502
lthumb 7.73497 12.965
rfemur -41.2548 -2.97298 19.9542
rtibia 68.8826
rfoot -13.2303 0.125224
rtoes -8.33917
lfemur -30.9993 2.85021 -26.0587
ltibia 36.8332
lfoot -21.5103 -3.72093
ltoes -5.41143
